<svg xmlns="http://www.w3.org/2000/svg" viewBox="0 0 454.73672 732.63166"><title>ac-milan-logo-freelogovectors.net</title><path d="M312.63164,400c0-199.999,101.05218-366.31583,227.36787-366.31583C668.42159,33.68417,767.36836,200.001,767.36836,400c0,202.10531-101.05218,366.31583-227.36885,366.31583-126.31569,0-227.36787-164.20956-227.36787-366.31583" transform="translate(-312.63164 -33.68417)"/><path d="M539.99951,599.999A199.33428,199.33428,0,0,1,365.2631,496.84336c8.4215,50.52514,25.26255,96.8424,46.31629,132.63084,33.68405,58.94954,79.99941,94.737,130.52547,94.737h0c50.52707,0,94.737-35.78843,128.42011-94.737,21.05373-35.78844,35.78844-82.10576,46.31632-132.63087C683.1582,557.8934,615.78914,599.999,539.99951,599.999M472.63042,136.8427,453.684,174.73653l27.36891-10.52688Zm0,0L453.684,174.73653l27.36891-10.52688ZM453.684,174.73751l27.36891-10.52688-8.42246-27.36793Zm195.78921,42.10458-14.73665-48.42072-12.63322,33.68406c-2.10342,0-4.2088-2.1044-6.31516-2.1044L605.26227,149.474,592.631,191.57855c-4.21076-2.1044-8.42247-2.1044-12.63323-2.1044l21.05376-71.57983,10.52592,6.31515,8.42246,44.2119,10.52592-27.3689,8.42246,6.31516,25.2606,82.10477c-4.20981-4.20881-10.52592-8.41859-14.73566-12.63031m-105.26294-29.4733c-25.26354,0-44.21-18.94643-44.21-44.21,0-25.26255,18.94642-44.209,44.21-44.209,12.63126,0,25.26255,6.31515,31.57869,14.73567l-10.52785,8.4215c-6.31614-6.31515-14.73471-10.52688-23.15717-10.52688-16.843,0-31.5787,14.73763-31.5787,31.57868s14.73569,31.57868,31.5787,31.57868c8.42246,0,16.84008-4.21076,23.15717-10.52688L575.789,172.6331c-6.31614,8.41955-18.94743,14.73569-31.57869,14.73569m-54.73587,6.31612-4.21076-16.843-40.00017,14.73762-12.6313,25.26354c-6.31613,4.21075-12.63224,10.5259-18.9474,14.73665L464.21185,128.4212l14.73664-10.5259,21.05376,71.57983c-2.10732,2.10343-6.31906,2.10343-10.52785,4.20978M670.525,172.63213c-33.68306-58.94759-80.00035-94.737-130.52546-94.737h0c-50.52511,0-96.84142,35.78943-130.52645,94.737C388.4193,208.42058,373.68363,254.7369,363.15773,305.264,396.84179,242.10562,462.10453,200.001,537.89416,200.001c18.94642,0,37.8948,2.1044,54.73685,8.41955h0c52.63245,14.73763,94.737,50.52706,119.99958,96.84338-6.31712-50.52706-21.05183-94.737-42.10562-132.63183M472.63042,136.8427,453.684,174.73653l27.36891-10.52688Zm0,0L453.684,174.73653l27.36891-10.52688ZM664.20887,429.47331V538.94894c31.57869-27.36989,52.63242-67.371,61.05488-111.58H664.20887Zm0-168.42127V366.31593h58.94954c-6.31712-42.10556-27.37085-77.894-58.94954-105.26389M550.52736,214.73769V366.316h44.20995V223.15724c-12.63126-4.20978-27.36987-8.41955-44.20995-8.41955m0,214.73562V587.36864c14.7347,0,29.47134-4.20879,44.20995-8.42246V429.47331Z" transform="translate(-312.63164 -33.68417)" style="fill:#fff"/><path d="M354.73622,400a192.85533,192.85533,0,0,1,23.15815-90.52627V488.42187C363.1587,463.15833,354.73622,433.687,354.73622,400m92.63262-159.99976V562.10707c-12.63224-6.31611-25.26353-16.844-35.78942-25.26449V265.2628c10.52589-8.41956,23.15718-18.94644,35.78942-25.26256m69.47349-25.26255V585.26431c-12.63224-2.10345-23.15914-4.2088-35.78942-8.42051V223.15822c12.63028-2.10441,23.15718-6.31613,35.78942-8.42053m33.685,204.20971V374.73745h54.73586V225.26359c18.9474,6.31515,35.78847,16.842,50.527,27.36793V374.73646H725.2628c0,8.42152,2.10345,16.84107,2.10345,25.26256v18.9474H655.78931V547.36653c-14.7386,12.63323-31.57869,21.05373-50.52707,27.36794v-155.788H550.52736ZM539.99951,738.9479C426.31607,738.9479,337.8942,585.26329,337.8942,400S426.31607,61.05308,539.99951,61.05308,742.10577,214.73769,742.10577,400.001c0,187.36766-88.42282,338.94692-202.10626,338.94692M695.78756,145.26225c-39.99729-65.26177-94.7351-105.26292-155.788-105.26292-61.052,0-115.7898,40.00115-155.789,105.26292C344.21032,210.52693,318.9468,301.0532,318.9468,400c0,98.94778,25.26353,189.47209,65.26469,254.73774,39.99822,65.26469,94.736,105.26389,155.788,105.26389,61.053,0,115.79076-39.9992,155.78805-105.26294,40.00116-65.26565,65.26564-155.79,65.26564-254.73774s-25.26448-189.474-65.26564-254.7387" transform="translate(-312.63164 -33.68417)" style="fill:#c90c0f"/><path d="M443.11561,601.95552l1.79517.6481c12.11873,4.38216,17.41476-.16,19.24789-4.38757l10.32357,3.73405-20.95358,57.93623-12.56617-4.54486,14.43184-39.90316-15.16943-5.48583Z" transform="translate(-312.63164 -33.68417)"/><path d="M502.58666,633.75878c-5.6621-.85689-7.99148-5.2472-7.44643-8.84839.67522-4.46351,4.25471-7.08032,10.20155-6.18006,4.24658.64268,7.29728,4.08659,6.59764,8.72094C511.27777,631.82528,507.77692,634.54247,502.58666,633.75878Zm20.3841,21.60164c1.19317-7.89384-1.80872-12.29772-7.78539-16.18632A13.01069,13.01069,0,0,0,524.7822,628.075c1.27181-8.40908-4.95977-16.98632-18.833-19.08517-11.70114-1.77076-21.805,3.10764-23.37514,13.49089-.85692,5.6621,1.39111,9.95206,6.31291,13.15462-10.84152,2.74972-12.06179,10.81442-12.52821,13.90306-1.25825,8.32232,3.1429,19.43229,20.41393,22.04369C514.51287,674.26664,521.802,663.08346,522.97076,655.36042Zm-13.66714-1.54024c-.63726,4.20319-4.09744,9.209-10.98525,8.16772-6.04173-.91387-9.13855-5.33128-8.25451-11.16691,1.00064-6.6058,6.0526-8.73721,10.86593-8.01045C508.28943,643.92505,509.95174,649.53021,509.30362,653.82018Z" transform="translate(-312.63164 -33.68417)"/><path d="M548.35531,631.90125c-.73216-8.82129,5.32313-10.89035,8.748-11.17507,6.84984-.56675,10.5378,3.47917,11.11811,10.48356.602,7.26474-4.28455,10.71676-8.9433,11.10183C554.23435,642.73188,549.12274,641.15365,548.35531,631.90125Zm-9.75411,27.88747c1.95245,9.67545,10.73033,15.04471,22.23894,14.09017,12.17569-1.01148,23.904-9.73243,21.93251-33.51162-.71861-8.64771-2.99919-31.53207-26.39874-29.59315-13.22242,1.09556-22.43961,8.91348-21.1895,23.96088.85149,10.291,9.106,18.5754,22.04368,17.50152,4.56656-.37964,9.71344-1.84942,12.41162-6.25325l.20337.15727c.97352,12.89158-4.19233,17.58833-9.71072,18.0439-4.08931.339-7.18881-1.23384-8.30332-5.4072l-.00542-.08677Z" transform="translate(-312.63164 -33.68417)"/><path d="M605.29631,622.619c-2.85817-8.37656,2.50836-11.85842,5.76244-12.96751,6.50545-2.22091,11.0693.80811,13.33631,7.45727,2.35377,6.89867-1.543,11.4381-5.97125,12.94852C613.63762,631.69241,608.2955,631.405,605.29631,622.619Zm-2.66564,29.42229c4.24929,8.91075,14.0712,11.97775,25.0022,8.24912,11.56283-3.94558,20.81257-15.26166,13.10581-37.84768-2.80121-8.21113-10.58932-29.85349-32.812-22.26878-12.558,4.28455-19.59228,14.11185-14.71659,28.4027,3.33271,9.77311,13.358,15.79585,25.64487,11.60354,4.33607-1.47789,8.96771-4.1598,10.5134-9.08975l.23591.103c4.08657,12.26789.21966,18.07911-5.01941,19.86887-3.88592,1.326-7.27558.55591-9.37176-3.22155l-.02712-.08135Z" transform="translate(-312.63164 -33.68417)"/></svg>