<?xml version="1.0" encoding="utf-8"?>
<!-- Generator: Adobe Illustrator 16.0.0, SVG Export Plug-In . SVG Version: 6.00 Build 0)  -->
<svg version="1.2" baseProfile="tiny" id="Layer_1" xmlns="http://www.w3.org/2000/svg" xmlns:xlink="http://www.w3.org/1999/xlink"
	 x="0px" y="0px"   viewBox="0 0 1000 1000" xml:space="preserve">
<g>
	<path fill="#004171" d="M618.609,682.496c0.001-0.001,0.003-0.002,0.004-0.002c0.573-3.272,0.986-6.591,1.257-9.944
		C619.6,675.907,619.186,679.229,618.609,682.496z"/>
	<path fill="#004171" d="M310.79,614.321c9.693,14.753,21.076,28.286,33.855,40.356C331.869,642.604,320.488,629.072,310.79,614.321
		z"/>
	<path fill="#004171" d="M499.684,551.479c-66.578,0-120.542,50.469-120.542,112.71c0,0.002,0,0.003,0,0.005
		c0.005-62.25,53.966-112.702,120.542-112.702c66.573,0,120.534,50.452,120.539,112.702c0-0.002,0-0.003,0-0.005
		C620.223,601.948,566.26,551.479,499.684,551.479z"/>
	<path fill="#004171" d="M688.517,614.392c0-0.001,0.001-0.001,0.001-0.002c-41.846-33.761-77.635-73.426-105.342-119.396h-0.012
		C610.88,540.972,646.664,580.633,688.517,614.392z"/>
	<path fill="#004171" d="M497.218,562.51c-51.638,1.242-93.111,41.375-93.111,90.726C404.107,603.897,445.58,563.753,497.218,562.51
		z"/>
	<path fill="#004171" d="M502.15,562.51c51.636,1.243,93.098,41.388,93.098,90.726C595.248,603.885,553.786,563.752,502.15,562.51z"
		/>
	<path fill="#004171" d="M380.742,682.494c0.001,0,0.002,0.001,0.004,0.002c-0.122-0.69-0.213-1.392-0.322-2.086
		C380.531,681.104,380.623,681.803,380.742,682.494z"/>
	<path fill="#004171" d="M603.354,781.68c-1.246-4.081-4.693-4.174-7.691-3.274l-16.154,4.867l3.229,10.7l16.145-4.866
		C602.801,787.931,604.404,785.231,603.354,781.68z"/>
	<path fill="#004171" d="M520.431,273.497c2.676,82.123,23.341,152.657,57.556,212.674
		C543.771,426.144,523.106,355.62,520.431,273.497z"/>
	<path fill="#004171" d="M416.053,494.993c-15.135,25.113-32.702,48.332-52.335,69.748c19.631-21.414,37.199-44.63,52.346-69.748
		H416.053z"/>
	<polygon fill="#004171" points="298.81,736.688 302.8,722.782 289.724,728.985 	"/>
	<path fill="#004171" d="M531.576,266.84c9.928,145.157,70.416,250.405,169.936,325.066c15.381-30.51,24.076-64.951,24.076-101.445
		C725.588,376.528,641.232,282.336,531.576,266.84z"/>
	<path fill="#004171" d="M360.042,568.701c0.657-0.7,1.329-1.388,1.981-2.092C361.371,567.313,360.699,568.001,360.042,568.701z"/>
	<path fill="#004171" d="M310.79,614.321c7.387-5.963,14.575-12.12,21.573-18.453C325.365,602.201,318.177,608.358,310.79,614.321z"
		/>
	<path fill="#004171" d="M467.813,266.827c-109.666,15.485-194.035,109.689-194.035,223.634c0,36.505,8.718,70.959,24.076,101.469
		C397.397,517.258,457.897,412.008,467.813,266.827z"/>
	<polygon fill="#004171" points="689.879,744.968 677.379,737.68 680.17,751.886 	"/>
	<path fill="#004171" d="M304.667,208.355c-6.837-6.226-17.457-5.741-23.683,1.096l-27.674,30.359l24.791,22.602l27.662-30.372
		C312.002,225.203,311.505,214.584,304.667,208.355z"/>
	<path fill="#004171" d="M382.891,161.543l-1.741,43.435c9.871-4.058,19.983-7.609,30.325-10.642L382.891,161.543z"/>
	<path fill="#004171" d="M552.563,157.068c0-9.247-7.52-16.775-16.766-16.775h-37.75v33.541h37.75
		C545.043,173.834,552.563,166.305,552.563,157.068z"/>
	<path fill="#004171" d="M499.394,883.472c217.811,0,394.377-176.578,394.377-394.383c0-217.811-176.566-394.365-394.377-394.365
		c-217.798,0-394.376,176.555-394.376,394.365C105.018,706.894,281.596,883.472,499.394,883.472z M261.544,721.699
		c-1.36,0-2.778-0.254-4.231-0.715c-4.508-1.453-9.306-5.35-13.526-10.978c-4-5.35-6.387-11.023-7.275-14.505l-0.034-0.093
		l0.091-0.092l3.99-3.735l0.08,0.253c4.555,13.998,13.837,23.776,19.314,23.776c0.899,0,1.73-0.23,2.433-0.692
		c1.303-0.831,2.088-1.961,2.329-3.344c0.622-3.436-2.386-7.818-5.5-11.992l-4.047-5.396c-2.791-3.734-4.164-8.001-3.667-11.369
		c0.299-2.166,1.371-3.943,3.159-5.28c1.51-1.106,3.287-1.707,5.27-1.707c8.845,0,20.582,11.347,23.672,22.923l0.034,0.114
		l-0.114,0.07c-0.957,0.53-2.537,1.43-3.886,2.237l-0.184,0.092l-0.057-0.208c-2.399-8.348-11.601-19.141-18.104-19.141
		c-0.218,0-0.415,0-0.611,0.023c-1.291,0.138-2.433,1.016-2.951,2.236c-0.622,1.407-0.738,3.875,2.111,7.681l3.563,4.773
		c5.35,7.147,7.726,13.052,7.045,17.526c-0.357,2.398-1.648,4.45-3.84,6.064C265.269,721.191,263.516,721.699,261.544,721.699z
		 M293.058,755.968l4.104-13.514l-12.891-10.955l-12.81,6.088l-4.336-3.967l37.831-17.871l4.601,3.92l-11.646,39.965
		L293.058,755.968z M309.546,767.959l21.216-32.193l4.555,2.997L314.1,770.956L309.546,767.959z M359.196,795.955l-4.774-2.169
		l-6.618-36.367l-0.093-0.022l-13.605,25.829l-4.681-2.699l17.688-33.714l4.832,2.536l6.56,35.952l0.081,0.047l13.387-25.483
		l4.832,2.537L359.196,795.955z M415.626,782.511l-12.545-4.381l-10.77,30.924l-5.143-1.799l10.77-30.902l-12.545-4.357l1.788-5.166
		l30.243,10.539L415.626,782.511z M450.079,807.232l-13.501-2.953l1.244-5.465l13.469,3.044L450.079,807.232z M517.879,815.972
		c-0.127,6.826-7.658,11.23-17.159,11.093c-10.101-0.184-20.524-7.265-20.316-20.133c0.173-10.816,8.948-19.556,21.065-19.348
		c9.041,0.138,13.711,4.958,15.902,7.125l-3.852,3.806c-1.846-1.822-4.717-5.374-11.59-5.488
		c-10.042-0.139-15.956,6.319-16.072,14.252c-0.138,7.402,5.616,14.159,15.209,14.32c6.572,0.116,11.299-2.86,11.357-6.065
		l0.068-4.243l-11.899-0.185l0.081-5.464l17.365,0.274L517.879,815.972z M534.367,824.619l-5.373-37.474l30.693-4.404l0.762,5.396
		l-25.287,3.62l1.418,9.847l12.74-1.821l0.785,5.396l-12.752,1.845l1.625,11.438l26.268-3.782l0.76,5.42L534.367,824.619z
		 M609.545,808.038l-11.75-12.913l-13.502,4.058l4.566,15.221l-5.223,1.477l-10.896-36.252l21.355-6.434
		c5.797-1.754,12.244-0.461,14.482,6.918c2.352,7.886-2.17,11.945-5.143,13.122l11.84,12.729L609.545,808.038z M663.773,783.733
		l-12.891-23.568l-0.104,0.068l-0.832,26.542l-22.012-14.896l-0.09,0.046l11.471,24.214l-4.957,2.238l-16.535-34.085l4.855-2.489
		l22.219,15.104l0.818-26.844l4.855-2.49l17.918,33.508L663.773,783.733z M499.684,732.606
		c-133.547,0-242.164-108.61-242.164-242.146c0-133.534,108.617-242.174,242.164-242.174c133.521,0,242.162,108.64,242.162,242.174
		C741.846,623.996,633.205,732.606,499.684,732.606z M706.781,755.16l-11.727-7.172l-13.789,9.801l2.662,13.722l-4.854,3.09
		l-8.002-40.75l4.936-3.503l35.512,21.03L706.781,755.16z M721.494,742.96l-25.77-27.742l3.988-3.713l25.852,27.813L721.494,742.96z
		 M758.402,705.187l-36.85-2.514l-0.068,0.094l21.664,19.485l-3.826,3.896l-28.24-25.413l3.645-4.058l36.459,2.514l0.08-0.093
		l-21.41-19.232l3.652-4.06l28.16,25.346L758.402,705.187z M698.1,252.265l-11.23-11.819c-11.576-12.164-19.094-31.455-5.834-43.977
		c22.334-21.078,69.389,12.568,81.197,46.191c0,0-9.881,7.275-14.322,10.643c-5.35-18.807-33.311-46.562-48.508-42.997
		c-4.266,1.003-8.775,7.62,2.25,19.222l9.914,10.434c23.949,25.206,29.473,45.789,14.252,59.925
		c-6.111,5.673-15.357,7.044-24.652,5.223c-11.83-2.329-25.033-10.63-37.15-23.395c-10.678-11.242-18.646-24.548-22.162-33.717
		l14.77-11.148c16.488,34.891,43.932,55.219,53.744,47.102C719.557,276.352,709.561,264.337,698.1,252.265z M630.047,145.446
		c6.57,2.502,13.086,5.166,19.475,8.025l-39.029,93.87c-6.342-2.94-12.834-5.661-19.441-8.106L630.047,145.446z M477.51,122.316
		h58.287c19.152,0,37.277,15.601,37.277,34.752c0,15.936-12.557,29.369-27.822,33.45l26.625,42.41
		c-8.488-2.422-17.125-4.44-25.91-6.044l-22.197-35.087h-25.723v30.742h-0.023c-6.919,0-13.733,0.321-20.513,0.84V122.316z
		 M365.86,146.76c7.023-2.744,14.148-5.269,21.378-7.586l77.819,85.465c-7.992,0.979-15.889,2.329-23.672,4.011l-17.689-20.294
		c-14.931,3.922-29.414,8.982-43.295,15.106l-1.085,26.842c-7.206,3.564-14.229,7.438-21.042,11.611L365.86,146.76z
		 M268.508,196.318c12.902-14.147,35.953-15.936,50.124-3.01c14.148,12.904,14.135,35.653,1.233,49.813l-28.504,31.386
		l23.016,20.962c-4.982,4.704-9.837,9.547-14.459,14.609l-73.726-67.188L268.508,196.318z"/>
	<path fill="#004171" d="M57.766,488.975c0,243.84,198.371,442.232,442.229,442.232c243.859,0,442.24-198.393,442.24-442.232
		c0-243.858-198.381-442.252-442.24-442.252C256.137,46.723,57.766,245.116,57.766,488.975z M499.394,78.454
		c109.678,0,212.795,42.72,290.35,120.287c77.564,77.553,120.285,180.658,120.285,290.348c0,109.678-42.721,212.802-120.285,290.354
		c-77.555,77.553-180.672,120.285-290.35,120.285c-109.689,0-212.805-42.732-290.36-120.285
		C131.48,701.891,88.76,598.767,88.76,489.089c0-109.689,42.721-212.795,120.274-290.348
		C286.589,121.174,389.705,78.454,499.394,78.454z"/>
	<path fill="#FFFFFF" d="M209.034,779.443c77.555,77.553,180.671,120.285,290.36,120.285c109.678,0,212.795-42.732,290.35-120.285
		c77.564-77.553,120.285-180.677,120.285-290.354c0-109.689-42.721-212.795-120.285-290.348
		c-77.555-77.567-180.672-120.287-290.35-120.287c-109.689,0-212.805,42.72-290.36,120.287
		C131.48,276.294,88.76,379.399,88.76,489.089C88.76,598.767,131.48,701.891,209.034,779.443z M499.394,94.724
		c217.811,0,394.377,176.555,394.377,394.365c0,217.805-176.566,394.383-394.377,394.383
		c-217.798,0-394.376-176.578-394.376-394.383C105.018,271.278,281.596,94.724,499.394,94.724z"/>
	<path fill="#FFFFFF" d="M649.521,153.472c-6.389-2.859-12.904-5.523-19.475-8.025l-38.996,93.789
		c6.607,2.445,13.1,5.166,19.441,8.106L649.521,153.472z"/>
	<path fill="#FFFFFF" d="M498.046,222.54v-30.742h25.723l22.197,35.087c8.785,1.604,17.422,3.622,25.91,6.044l-26.625-42.41
		c15.266-4.081,27.822-17.515,27.822-33.45c0-19.151-18.125-34.752-37.277-34.752H477.51V223.38c6.78-0.519,13.594-0.84,20.513-0.84
		H498.046z M498.046,140.293h37.75c9.246,0,16.766,7.528,16.766,16.775c0,9.236-7.52,16.766-16.766,16.766h-37.75V140.293z"/>
	<path fill="#FFFFFF" d="M314.377,295.469l-23.016-20.962l28.504-31.386c12.902-14.159,12.915-36.908-1.233-49.813
		c-14.171-12.926-37.222-11.138-50.124,3.01l-42.316,46.572l73.726,67.188C304.541,305.016,309.396,300.173,314.377,295.469z
		 M253.311,239.811l27.674-30.359c6.226-6.837,16.846-7.321,23.683-1.096c6.837,6.229,7.334,16.848,1.096,23.685l-27.662,30.372
		L253.311,239.811z"/>
	<path fill="#FFFFFF" d="M710.367,283.95c-9.813,8.117-37.256-12.211-53.744-47.102l-14.77,11.148
		c3.516,9.169,11.484,22.475,22.162,33.717c12.117,12.765,25.32,21.065,37.15,23.395c9.295,1.821,18.541,0.45,24.652-5.223
		c15.221-14.136,9.697-34.719-14.252-59.925l-9.914-10.434c-11.025-11.602-6.516-18.219-2.25-19.222
		c15.197-3.564,43.158,24.19,48.508,42.997c4.441-3.367,14.322-10.643,14.322-10.643c-11.809-33.623-58.863-67.27-81.197-46.191
		c-13.26,12.521-5.742,31.813,5.834,43.977l11.23,11.819C709.561,264.337,719.557,276.352,710.367,283.95z"/>
	<path fill="#FFFFFF" d="M380.401,223.462c13.882-6.124,28.364-11.185,43.295-15.106l17.689,20.294
		c7.783-1.682,15.68-3.031,23.672-4.011l-77.819-85.465c-7.23,2.317-14.355,4.842-21.378,7.586l-7.586,115.155
		c6.814-4.174,13.837-8.047,21.042-11.611L380.401,223.462z M382.891,161.543l28.584,32.793
		c-10.342,3.032-20.455,6.584-30.325,10.642L382.891,161.543z"/>
	<path fill="#004171" d="M502.15,562.51c-0.819-0.02-1.642-0.029-2.466-0.029s-1.647,0.01-2.466,0.029
		c-51.638,1.243-93.111,41.388-93.111,90.726c0,17.666,5.339,34.149,14.517,48.077c25.172,9.686,52.476,15.035,81.061,15.035
		c28.572,0,55.886-5.35,81.058-15.035c9.18-13.928,14.506-30.411,14.506-48.077C595.248,603.897,553.786,563.753,502.15,562.51z
		 M498.783,591.859c0.347-0.265,0.647-0.414,0.901-0.414c3.642,0,15.726,28.791,15.726,38.027c0,6.871-13.848,24.952-13.904,34.81
		c0,0.034,0.01,0.047,0.01,0.094c0,1.003-0.83,1.821-1.832,1.821c-1.016,0-1.834-0.818-1.834-1.821v-0.023
		c0-9.871-13.905-27.996-13.905-34.88C483.945,620.882,494.378,595.399,498.783,591.859z M488.303,665.274
		c-0.023-0.046-0.034-0.08-0.057-0.093c0-0.011,0-0.034,0-0.046c-5.005-10.804-14.288-15.854-19.545-15.854
		c-2.964,0-5.362,2.396-5.362,5.36s2.398,5.362,5.362,5.362c0.277,0,0.703-0.046,0.957-0.08c0.23-0.036,0.808-0.174,1.085,0.472
		c0.23,0.519,0.668,3.091-1.638,5.731c-1.339,1.51-4.117,2.779-6.746,2.779c-8.843,0-16.016-7.174-16.016-16.006
		c0-8.843,7.173-16.004,16.016-16.004c11.692,0,22.947,9.41,29.473,26.613c0.115,0.241,0.184,0.53,0.195,0.818
		c0.013,1.096-0.853,2.006-1.959,2.006C489.305,666.358,488.614,665.907,488.303,665.274z M508.055,681.042
		c-1.613,3.183-4.313,7.125-7.634,9.802c-0.473,0.368-0.633,0.392-0.736,0.392c-0.104,0-0.29-0.023-0.762-0.392
		c-3.298-2.677-6.008-6.619-7.611-9.802c-0.184-0.369-0.148-0.577,0.336-0.875c2.628-1.614,4.635-4.197,5.361-7.271
		c0.324-1.176,1.396-2.041,2.676-2.041c1.267,0,2.339,0.865,2.664,2.041c0.715,3.073,2.73,5.656,5.359,7.271
		C508.191,680.465,508.227,680.673,508.055,681.042z M536.477,668.918c-2.641,0-5.396-1.28-6.744-2.79
		c-2.318-2.63-1.857-5.224-1.639-5.731c0.277-0.646,0.854-0.519,1.096-0.472c0.23,0.034,0.67,0.08,0.957,0.08
		c2.951,0,5.35-2.398,5.35-5.362c0-2.951-2.398-5.35-5.35-5.35c-5.27,0-14.553,5.039-19.545,15.854l-0.01,0.034
		c-0.014,0.023-0.037,0.047-0.037,0.081h-0.01c-0.334,0.645-1.004,1.085-1.787,1.072c-1.084-0.011-1.949-0.91-1.949-2.019
		c0-0.275,0.08-0.564,0.197-0.806c6.525-17.203,17.777-26.613,29.471-26.613c8.855,0,16.006,7.161,16.006,16.004
		C552.482,661.746,545.332,668.918,536.477,668.918z"/>
	<path fill="#E2001A" d="M379.143,664.202c0-0.003,0-0.005,0-0.008c0-0.002,0-0.003,0-0.005c0-62.241,53.963-112.71,120.542-112.71
		c66.576,0,120.539,50.469,120.539,112.71c0,0.002,0,0.003,0,0.005c0,0.003,0,0.005,0,0.008c0,2.808-0.131,5.589-0.353,8.348
		c-0.271,3.354-0.684,6.672-1.257,9.944c27.971-17.338,51.836-40.638,69.903-68.103c-41.853-33.759-77.637-73.42-105.353-119.398
		h-167.1c-15.147,25.118-32.715,48.334-52.346,69.748c-0.568,0.62-1.123,1.252-1.694,1.868c-0.653,0.704-1.324,1.392-1.981,2.092
		c-8.832,9.409-18.063,18.466-27.679,27.167c-6.998,6.333-14.186,12.49-21.573,18.453c9.698,14.751,21.079,28.283,33.855,40.356
		c11.042,10.429,23.121,19.77,36.097,27.816c-0.12-0.691-0.211-1.39-0.318-2.084C379.599,675.116,379.143,669.705,379.143,664.202z"
		/>
	<path fill="#E2001A" d="M577.986,486.171c-34.215-60.017-54.88-130.551-57.556-212.674c-0.086-2.649-0.153-5.31-0.202-7.983
		c-6.777-0.601-13.627-0.969-20.544-0.969c-6.977,0-13.861,0.368-20.688,0.979c-1.544,85.545-22.449,158.693-57.767,220.646H577.986
		z"/>
	<path fill="#FFFFFF" d="M499.684,248.287c-133.547,0-242.164,108.64-242.164,242.174c0,133.535,108.617,242.146,242.164,242.146
		c133.521,0,242.162-108.61,242.162-242.146C741.846,356.927,633.205,248.287,499.684,248.287z M499.684,264.545
		c6.917,0,13.767,0.368,20.544,0.969c0.049,2.673,0.116,5.334,0.202,7.983c2.676,82.123,23.341,152.646,57.556,212.674H421.229
		c35.318-61.953,56.223-135.102,57.767-220.646C485.823,264.913,492.707,264.545,499.684,264.545z M273.777,490.461
		c0-113.944,84.369-208.148,194.035-223.634c-9.916,145.181-70.416,250.431-169.959,325.103
		C282.495,561.42,273.777,526.966,273.777,490.461z M380.742,682.494c-12.976-8.047-25.056-17.388-36.097-27.816
		c-12.779-12.07-24.162-25.604-33.855-40.356c7.387-5.963,14.575-12.12,21.573-18.453c9.615-8.701,18.847-17.758,27.679-27.167
		c0.657-0.7,1.329-1.388,1.981-2.092c0.571-0.616,1.126-1.248,1.694-1.868c19.633-21.416,37.2-44.635,52.335-69.748h0.011h167.1
		h0.012c27.707,45.971,63.496,85.636,105.342,119.396c0,0.001-0.001,0.001-0.001,0.002c-18.067,27.465-41.933,50.765-69.903,68.103
		c-0.001,0-0.003,0.001-0.004,0.002c0.576-3.268,0.99-6.589,1.261-9.946c0.222-2.759,0.353-5.54,0.353-8.348
		c0-0.003,0-0.005,0-0.008c-0.005-62.25-53.966-112.702-120.539-112.702c-66.575,0-120.537,50.452-120.542,112.702
		c0,0.003,0,0.005,0,0.008c0,5.503,0.457,10.914,1.282,16.208c0.108,0.694,0.2,1.396,0.322,2.086
		C380.745,682.495,380.744,682.494,380.742,682.494z M580.742,701.313c-25.172,9.686-52.486,15.035-81.058,15.035
		c-28.584,0-55.889-5.35-81.061-15.035c-9.177-13.928-14.517-30.411-14.517-48.077c0-49.351,41.473-89.483,93.111-90.726
		c0.819-0.02,1.642-0.029,2.466-0.029s1.647,0.01,2.466,0.029c51.636,1.242,93.098,41.375,93.098,90.726
		C595.248,670.901,589.922,687.385,580.742,701.313z M531.576,266.84c109.656,15.496,194.012,109.688,194.012,223.621
		c0,36.494-8.695,70.936-24.076,101.445C601.992,517.245,541.504,411.997,531.576,266.84z"/>
	<path fill="#CEAB5C" d="M507.707,680.167c-2.629-1.614-4.645-4.197-5.359-7.271c-0.324-1.176-1.397-2.041-2.664-2.041
		c-1.28,0-2.353,0.865-2.676,2.041c-0.726,3.073-2.733,5.656-5.361,7.271c-0.484,0.298-0.52,0.506-0.336,0.875
		c1.604,3.183,4.313,7.125,7.611,9.802c0.472,0.368,0.657,0.392,0.762,0.392c0.104,0,0.264-0.023,0.736-0.392
		c3.322-2.677,6.021-6.619,7.634-9.802C508.227,680.673,508.191,680.465,507.707,680.167z"/>
	<path fill="#CEAB5C" d="M497.85,664.376c0,1.003,0.818,1.821,1.834,1.821c1.002,0,1.832-0.818,1.832-1.821
		c0-0.047-0.01-0.06-0.01-0.094c0.057-9.857,13.904-27.938,13.904-34.81c0-9.236-12.084-38.027-15.726-38.027
		c-0.254,0-0.555,0.149-0.901,0.414c-4.404,3.54-14.838,29.022-14.838,37.613c0,6.884,13.905,25.009,13.905,34.88V664.376z"/>
	<path fill="#CEAB5C" d="M492.026,664.329c-0.011-0.288-0.08-0.577-0.195-0.818c-6.526-17.203-17.78-26.613-29.473-26.613
		c-8.843,0-16.016,7.161-16.016,16.004c0,8.832,7.173,16.006,16.016,16.006c2.629,0,5.407-1.27,6.746-2.779
		c2.306-2.641,1.868-5.213,1.638-5.731c-0.277-0.646-0.854-0.508-1.085-0.472c-0.254,0.034-0.68,0.08-0.957,0.08
		c-2.964,0-5.362-2.398-5.362-5.362s2.398-5.36,5.362-5.36c5.257,0,14.54,5.05,19.545,15.854c0,0.012,0,0.035,0,0.046
		c0.023,0.013,0.034,0.047,0.057,0.093c0.311,0.633,1.002,1.084,1.764,1.061C491.173,666.335,492.039,665.425,492.026,664.329z"/>
	<path fill="#CEAB5C" d="M536.477,636.897c-11.693,0-22.945,9.41-29.471,26.613c-0.117,0.241-0.197,0.53-0.197,0.806
		c0,1.108,0.865,2.008,1.949,2.019c0.783,0.013,1.453-0.428,1.787-1.072h0.01c0-0.034,0.023-0.058,0.037-0.081l0.01-0.034
		c4.992-10.815,14.275-15.854,19.545-15.854c2.951,0,5.35,2.398,5.35,5.35c0,2.964-2.398,5.362-5.35,5.362
		c-0.287,0-0.727-0.046-0.957-0.08c-0.242-0.047-0.818-0.174-1.096,0.472c-0.219,0.508-0.68,3.102,1.639,5.731
		c1.348,1.51,4.104,2.79,6.744,2.79c8.855,0,16.006-7.172,16.006-16.017C552.482,644.059,545.332,636.897,536.477,636.897z"/>
	<path fill="#FFFFFF" d="M304.956,715.749l-37.831,17.871l4.336,3.967l12.81-6.088l12.891,10.955l-4.104,13.514l4.853,3.666
		l11.646-39.965L304.956,715.749z M298.81,736.688l-9.086-7.702l13.076-6.203L298.81,736.688z"/>
	<polygon fill="#FFFFFF" points="330.762,735.766 309.546,767.959 314.1,770.956 335.316,738.763 	"/>
	<polygon fill="#FFFFFF" points="358.584,785.348 358.504,785.301 351.944,749.349 347.112,746.813 329.425,780.526 
		334.106,783.226 347.711,757.396 347.804,757.419 354.421,793.786 359.196,795.955 376.803,762.401 371.971,759.864 	"/>
	<polygon fill="#FFFFFF" points="385.394,771.995 397.938,776.353 387.168,807.255 392.311,809.054 403.081,778.13 415.626,782.511 
		417.424,777.368 387.181,766.829 	"/>
	<path fill="#FFFFFF" d="M500.593,811.105l11.899,0.185l-0.068,4.243c-0.059,3.205-4.785,6.182-11.357,6.065
		c-9.593-0.161-15.347-6.918-15.209-14.32c0.116-7.933,6.031-14.391,16.072-14.252c6.873,0.114,9.744,3.666,11.59,5.488l3.852-3.806
		c-2.191-2.167-6.861-6.987-15.902-7.125c-12.117-0.208-20.892,8.531-21.065,19.348c-0.208,12.868,10.215,19.949,20.316,20.133
		c9.5,0.138,17.032-4.267,17.159-11.093l0.16-10.056l-17.365-0.274L500.593,811.105z"/>
	<polygon fill="#FFFFFF" points="538.979,818.463 537.354,807.024 550.105,805.18 549.32,799.783 536.58,801.604 535.162,791.758 
		560.449,788.138 559.688,782.741 528.994,787.146 534.367,824.619 566.006,820.101 565.246,814.681 	"/>
	<path fill="#FFFFFF" d="M608.578,780.112c-2.238-7.379-8.686-8.672-14.482-6.918l-21.355,6.434l10.896,36.252l5.223-1.477
		l-4.566-15.221l13.502-4.058l11.75,12.913l5.73-2.075l-11.84-12.729C606.408,792.058,610.93,787.998,608.578,780.112z
		 M598.881,789.106l-16.145,4.866l-3.229-10.7l16.154-4.867c2.998-0.899,6.445-0.807,7.691,3.274
		C604.404,785.231,602.801,787.931,598.881,789.106z"/>
	<path fill="#FFFFFF" d="M671.072,733.851l8.002,40.75l4.854-3.09l-2.662-13.722l13.789-9.801l11.727,7.172l4.738-3.782
		l-35.512-21.03L671.072,733.851z M689.879,744.968l-9.709,6.918l-2.791-14.206L689.879,744.968z"/>
	<polygon fill="#FFFFFF" points="695.725,715.218 721.494,742.96 725.564,739.317 699.713,711.505 	"/>
	<polygon fill="#FFFFFF" points="729.855,679.866 751.266,699.099 751.186,699.191 714.727,696.678 711.082,700.735 
		739.322,726.148 743.148,722.252 721.484,702.767 721.553,702.673 758.402,705.187 761.668,701.152 733.508,675.807 	"/>
	<polygon fill="#FFFFFF" points="645.717,750.063 644.898,776.907 622.68,761.803 617.824,764.292 634.359,798.377 639.316,796.139 
		627.846,771.925 627.936,771.879 649.947,786.775 650.779,760.233 650.883,760.165 663.773,783.733 668.49,781.081 
		650.572,747.573 	"/>
	<path fill="#FFFFFF" d="M270.446,714.158c0.681-4.475-1.695-10.379-7.045-17.526l-3.563-4.773
		c-2.849-3.806-2.733-6.273-2.111-7.681c0.518-1.221,1.661-2.099,2.951-2.236c0.197-0.023,0.393-0.023,0.611-0.023
		c6.503,0,15.705,10.793,18.104,19.141l0.057,0.208l0.184-0.092c1.35-0.808,2.93-1.707,3.886-2.237l0.114-0.07l-0.034-0.114
		c-3.09-11.576-14.827-22.923-23.672-22.923c-1.982,0-3.759,0.601-5.27,1.707c-1.788,1.337-2.86,3.114-3.159,5.28
		c-0.497,3.368,0.876,7.635,3.667,11.369l4.047,5.396c3.114,4.174,6.122,8.557,5.5,11.992c-0.241,1.383-1.026,2.513-2.329,3.344
		c-0.703,0.462-1.534,0.692-2.433,0.692c-5.477,0-14.76-9.778-19.314-23.776l-0.08-0.253l-3.99,3.735l-0.091,0.092l0.034,0.093
		c0.889,3.481,3.275,9.155,7.275,14.505c4.22,5.628,9.018,9.524,13.526,10.978c1.453,0.461,2.871,0.715,4.231,0.715
		c1.972,0,3.725-0.508,5.062-1.477C268.797,718.608,270.088,716.557,270.446,714.158z"/>
	<polygon fill="#FFFFFF" points="436.577,804.279 450.079,807.232 451.291,801.858 437.821,798.814 	"/>
</g>
</svg>
